<mxfile host="app.diagrams.net" modified="2024-02-27T04:33:57.421Z" agent="Mozilla/5.0 (Macintosh; Intel Mac OS X 10_15_7) AppleWebKit/537.36 (KHTML, like Gecko) Chrome/121.0.0.0 Safari/537.36" etag="hKADFjdFU408C9wu1RZf" version="23.0.0" type="github">
  <diagram name="Page-1" id="dFplwA7LAqxXr1wG6L84">
    <mxGraphModel dx="2074" dy="1146" grid="1" gridSize="10" guides="1" tooltips="1" connect="1" arrows="1" fold="1" page="1" pageScale="1" pageWidth="850" pageHeight="1100" math="0" shadow="0">
      <root>
        <mxCell id="0" />
        <mxCell id="1" parent="0" />
        <mxCell id="q3gFSw43MhC_Q-BjB-Tb-20" value="CG" style="rounded=0;whiteSpace=wrap;html=1;fillColor=#d5e8d4;strokeColor=#82b366;" vertex="1" parent="1">
          <mxGeometry x="720" y="600" width="880" height="80" as="geometry" />
        </mxCell>
        <mxCell id="q3gFSw43MhC_Q-BjB-Tb-1" value="MPE" style="rounded=0;whiteSpace=wrap;html=1;fillColor=#f9f7ed;strokeColor=#36393d;" vertex="1" parent="1">
          <mxGeometry x="480" y="480" width="120" height="40" as="geometry" />
        </mxCell>
        <mxCell id="q3gFSw43MhC_Q-BjB-Tb-2" value="CG" style="rounded=0;whiteSpace=wrap;html=1;fillColor=#d5e8d4;strokeColor=#82b366;" vertex="1" parent="1">
          <mxGeometry x="480" y="600" width="120" height="80" as="geometry" />
        </mxCell>
        <mxCell id="q3gFSw43MhC_Q-BjB-Tb-3" value="Trigger CG" style="rounded=0;whiteSpace=wrap;html=1;fillColor=#e1d5e7;strokeColor=#9673a6;" vertex="1" parent="1">
          <mxGeometry x="640" y="480" width="80" height="40" as="geometry" />
        </mxCell>
        <mxCell id="q3gFSw43MhC_Q-BjB-Tb-4" value="Calculate" style="rounded=0;whiteSpace=wrap;html=1;fillColor=#dae8fc;strokeColor=#6c8ebf;" vertex="1" parent="1">
          <mxGeometry x="720" y="620" width="120" height="40" as="geometry" />
        </mxCell>
        <mxCell id="q3gFSw43MhC_Q-BjB-Tb-5" value="Trigger P2P" style="rounded=0;whiteSpace=wrap;html=1;fillColor=#fff2cc;strokeColor=#d6b656;" vertex="1" parent="1">
          <mxGeometry x="840" y="620" width="60" height="40" as="geometry" />
        </mxCell>
        <mxCell id="q3gFSw43MhC_Q-BjB-Tb-6" value="Calculate" style="rounded=0;whiteSpace=wrap;html=1;fillColor=#dae8fc;strokeColor=#6c8ebf;" vertex="1" parent="1">
          <mxGeometry x="900" y="620" width="120" height="40" as="geometry" />
        </mxCell>
        <mxCell id="q3gFSw43MhC_Q-BjB-Tb-7" value="Pending Flag" style="rounded=0;whiteSpace=wrap;html=1;fillColor=#fff2cc;strokeColor=#d6b656;" vertex="1" parent="1">
          <mxGeometry x="1080" y="620" width="260" height="40" as="geometry" />
        </mxCell>
        <mxCell id="q3gFSw43MhC_Q-BjB-Tb-8" value="Trigger P2P" style="rounded=0;whiteSpace=wrap;html=1;fillColor=#fff2cc;strokeColor=#d6b656;" vertex="1" parent="1">
          <mxGeometry x="1020" y="620" width="60" height="40" as="geometry" />
        </mxCell>
        <mxCell id="q3gFSw43MhC_Q-BjB-Tb-9" value="Pending P2P Flag" style="rounded=0;whiteSpace=wrap;html=1;fillColor=#ffcccc;strokeColor=#36393d;" vertex="1" parent="1">
          <mxGeometry x="720" y="480" width="180" height="40" as="geometry" />
        </mxCell>
        <mxCell id="q3gFSw43MhC_Q-BjB-Tb-11" value="P2P transport" style="rounded=0;whiteSpace=wrap;html=1;fillColor=#ffcccc;strokeColor=#36393d;" vertex="1" parent="1">
          <mxGeometry x="980" y="480" width="140" height="40" as="geometry" />
        </mxCell>
        <mxCell id="q3gFSw43MhC_Q-BjB-Tb-12" value="Trigger P2P" style="rounded=0;whiteSpace=wrap;html=1;fillColor=#e1d5e7;strokeColor=#9673a6;" vertex="1" parent="1">
          <mxGeometry x="1120" y="480" width="80" height="40" as="geometry" />
        </mxCell>
        <mxCell id="q3gFSw43MhC_Q-BjB-Tb-16" value="Trigger P2P" style="rounded=0;whiteSpace=wrap;html=1;fillColor=#e1d5e7;strokeColor=#9673a6;" vertex="1" parent="1">
          <mxGeometry x="900" y="480" width="80" height="40" as="geometry" />
        </mxCell>
        <mxCell id="q3gFSw43MhC_Q-BjB-Tb-17" value="P2P transport" style="rounded=0;whiteSpace=wrap;html=1;fillColor=#ffcccc;strokeColor=#36393d;" vertex="1" parent="1">
          <mxGeometry x="1200" y="480" width="140" height="40" as="geometry" />
        </mxCell>
        <mxCell id="q3gFSw43MhC_Q-BjB-Tb-18" value="Calculate" style="rounded=0;whiteSpace=wrap;html=1;fillColor=#dae8fc;strokeColor=#6c8ebf;" vertex="1" parent="1">
          <mxGeometry x="1340" y="620" width="120" height="40" as="geometry" />
        </mxCell>
        <mxCell id="q3gFSw43MhC_Q-BjB-Tb-19" value="Trigger P2P" style="rounded=0;whiteSpace=wrap;html=1;fillColor=#fff2cc;strokeColor=#d6b656;" vertex="1" parent="1">
          <mxGeometry x="1460" y="620" width="60" height="40" as="geometry" />
        </mxCell>
      </root>
    </mxGraphModel>
  </diagram>
</mxfile>
